<?xml version="1.0" encoding="UTF-8"?>
<!DOCTYPE svg PUBLIC "-//W3C//DTD SVG 1.1//EN" "http://www.w3.org/Graphics/SVG/1.1/DTD/svg11.dtd">
<!-- Creator: CorelDRAW X7 -->
<svg xmlns="http://www.w3.org/2000/svg" xml:space="preserve" width="150mm" height="165mm" version="1.1" style="shape-rendering:geometricPrecision; text-rendering:geometricPrecision; image-rendering:optimizeQuality; fill-rule:evenodd; clip-rule:evenodd"
viewBox="0 0 15000 16500"
 xmlns:xlink="http://www.w3.org/1999/xlink">
 <defs>
  <style type="text/css">
   <![CDATA[
    .fil0 {fill:#FEFEFE}
   ]]>
  </style>
 </defs>
 <g id="Layer_x0020_1">
  <metadata id="CorelCorpID_0Corel-Layer"/>
  <g id="_3125692642304">
   <g>
    <path class="fil0" d="M10103 13120l357 -192c281,-151 445,26 634,378 93,173 331,557 -35,754l-349 188 -607 -1128 0 0zm-9773 -7835l67 -234 1231 353 -124 433c-46,159 -188,229 -398,169 -157,-45 -258,-135 -242,-294l-3 -1c-22,49 -79,197 -301,133 -78,-22 -311,-84 -369,-77l66 -230c84,-9 166,21 246,44 147,42 267,90 319,-89l17 -61 -509 -146 0 0zm948 2194l26 405c20,319 -210,393 -608,419 -197,12 -644,68 -671,-347l-25 -396 1278 -81 0 0zm-1202 1099l1320 46 67 314 -1185 578 -54 -250 264 -123 -70 -325 -291 -5 -51 -235 0 0zm1477 723l144 380c113,298 -85,437 -458,578 -184,70 -596,255 -743,-134l-141 -371 1198 -453 0 0zm1102 2067l274 299c215,236 83,438 -212,707 -145,133 -459,457 -740,150l-268 -293 946 -863 0 0zm215 1161c214,-263 418,-513 729,-260 312,253 108,504 -106,767 -211,260 -417,513 -729,260 -311,-254 -105,-507 106,-767l0 0zm3697 2385l398 -1259 321 19 238 1297 -256 -15 -47 -287 -331 -20 -83 279 -240 -14 0 0zm1095 -1229l405 -35c318,-27 397,201 432,598 17,197 83,643 -332,679l-395 34 -110 -1276 0 0zm1053 536c-79,-329 -155,-643 236,-737 390,-93 466,220 544,550 79,326 155,643 -236,737 -390,93 -466,-224 -544,-550l0 0zm2567 -1026c-203,-272 -397,-530 -75,-771 321,-240 515,18 717,290 201,268 397,529 75,770 -321,240 -517,-21 -717,-289l0 0zm1983 -941l-153 190 -996 -805 283 -350c104,-130 262,-139 432,-2 127,103 185,225 108,366l3 2c39,-37 149,-151 328,-6 64,51 255,199 310,215l-150 186c-81,-24 -144,-84 -209,-136 -119,-96 -211,-188 -329,-42l-40 49 413 333 0 0zm168 -1332c-302,-153 -590,-299 -408,-657 182,-358 470,-212 772,-58 299,151 590,299 408,657 -182,358 -473,210 -772,58l0 0zm63 -1770l85 -397c67,-312 308,-322 699,-238 192,42 638,109 551,516l-83 388 -1252 -269 0 0zm1330 -3354l-1320 53 -90 -308 1138 -665 73 246 -254 142 94 318 291 -17 68 231 0 0zm-1925 -3533l171 172 -910 902 -316 -320c-117,-117 -109,-275 46,-429 116,-115 244,-160 375,-68l3 -2c-33,-43 -134,-165 30,-327 58,-58 226,-231 247,-285l168 170c-32,78 -99,134 -158,193 -108,107 -209,189 -77,322l44 45 377 -373 0 0zm-942 -24c-205,270 -400,527 -720,285 -320,-243 -124,-500 80,-770 203,-267 400,-527 720,-285 320,243 123,503 -80,770l0 0zm-3960 8027l0 -900c0,-64 -8,-103 -23,-118 -15,-15 -49,-22 -104,-22l-77 0 0 -234 1058 0c187,0 327,34 419,102 92,68 138,171 138,309 0,92 -28,171 -85,234 -57,63 -137,106 -241,129 105,14 175,48 212,103 38,55 56,181 56,377 0,59 5,100 14,123 9,23 24,34 46,34 21,0 36,-14 46,-42 10,-28 15,-71 15,-128 0,-5 0,-15 -1,-28 -1,-13 -1,-22 -1,-29l156 0c0,8 0,19 1,34 1,14 1,26 1,33 0,154 -29,266 -88,336 -59,69 -154,104 -285,104 -140,0 -241,-32 -305,-94 -64,-63 -95,-163 -95,-299l0 -139c0,-110 -14,-180 -41,-209 -28,-30 -84,-45 -170,-45l-138 0 0 369c0,64 8,104 23,119 15,16 49,23 102,23l87 0 0 235 -924 0 0 -235 77 0c54,0 88,-7 104,-23 15,-15 23,-55 23,-119l0 0zm2832 3691l103 -56c131,-70 98,-191 -54,-474 -112,-208 -210,-390 -359,-310l-111 59 421 781zm-7457 -11155l-559 -716c-118,-152 -164,-371 70,-554 211,-164 406,-124 554,67l559 716 -192 149 -548 -702c-97,-124 -183,-135 -253,-81 -84,66 -74,157 13,269l548 702 -192 150zm-1037 -787l933 877 -225 240 -858 -382 -2 3 646 607 -156 165 -933 -876 220 -234 900 409 2 -2 -683 -641 156 -166zm-776 878l1027 764 -145 196 -1028 -765 146 -195zm829 1010l-130 217 -892 -323 -2 3 696 652 -124 206 -941 -921 146 -245 1247 411zm-1644 300l1174 510 -253 583 -180 -78 156 -360 -290 -126 -144 332 -180 -79 144 -331 -344 -149 -161 371 -181 -78 259 -595zm283 1281l-30 103c-27,93 68,149 146,172 118,33 175,1 196,-73l30 -104 -342 -98zm-959 860c43,-298 245,-326 462,-282l-35 241c-121,-17 -223,-27 -243,105 -11,82 41,130 127,142 228,33 312,-450 690,-395 198,29 344,138 301,431 -34,235 -167,335 -429,280l34 -234c94,14 193,13 207,-84 11,-78 -29,-132 -117,-144 -241,-35 -290,453 -688,395 -328,-47 -335,-271 -309,-455zm-49 667l1280 55 -11 243 -1279 -55 10 -243zm191 778l7 117c10,148 134,169 454,149 236,-15 443,-28 432,-197l-8 -126 -885 57zm974 1029l-1 -4 -564 8 49 227 516 -231zm-560 1092l41 110c53,139 178,123 478,9 221,-83 415,-157 355,-315l-45 -118 -829 314zm144 858l1125 -611 304 558 -173 94 -188 -344 -277 151 173 317 -173 94 -173 -317 -329 178 193 356 -172 94 -310 -570zm1249 1508l79 87c100,110 210,49 447,-168 174,-159 328,-299 213,-424l-84 -93 -655 598zm1283 602c207,-255 283,-376 176,-462 -106,-87 -209,12 -416,267 -207,254 -283,375 -177,462 107,86 210,-13 417,-267zm743 1239l545 -1159 575 271 -84 178 -354 -167 -135 286 327 154 -84 178 -326 -154 -160 339 367 172 -84 178 -587 -276zm1134 492c-287,-92 -282,-295 -202,-502l232 74c-37,117 -64,216 63,257 79,25 135,-18 161,-101 71,-220 -392,-383 -275,-746 61,-191 192,-316 475,-226 226,73 302,220 205,470l-226 -72c30,-91 45,-189 -48,-219 -75,-24 -135,8 -162,92 -74,231 400,361 277,744 -101,316 -324,286 -500,229zm1585 -966l-38 209 -267 -49 -192 1051 -239 -44 192 -1050 -267 -49 38 -209 773 141zm333 264l-3 0 -144 546 231 14 -84 -560zm901 835l117 -10c148,-13 166,-137 138,-457 -20,-235 -38,-442 -206,-427l-126 10 77 884zm1258 -653c-77,-319 -127,-453 -260,-421 -134,32 -118,174 -42,494 77,319 127,452 260,421 134,-32 118,-175 42,-494zm2471 -1230c-197,-262 -296,-365 -406,-283 -109,82 -39,206 158,469 197,263 296,366 406,284 109,-83 38,-207 -158,-470zm972 -1064l68 -84c61,-75 -4,-163 -68,-215 -95,-77 -160,-69 -209,-9l-68 84 277 224zm1014 -138l-1072 -701 133 -203 1072 700 -133 204zm-28 -1232c-292,-149 -427,-198 -489,-75 -62,122 56,202 349,350 292,149 427,198 489,75 62,-122 -56,-202 -349,-350zm921 -1285l25 -116c31,-145 -82,-199 -396,-266 -231,-50 -434,-93 -469,72l-27 123 867 187zm345 -799l-1277 -98 48 -633 196 15 -29 390 314 24 28 -360 196 15 -27 360 373 29 31 -404 196 15 -49 647zm-1354 -2133l971 -148c221,-34 341,115 367,285 51,337 -101,374 -389,418l-37 -245c101,-16 255,-18 236,-144 -8,-54 -68,-84 -122,-76l-989 151 -37 -241zm104 -570l1 4 562 -50 -65 -223 -498 269zm760 -997l-1157 549 -141 -297 668 -660 -2 -3 -801 381 -97 -206 1156 -549 138 289 -709 689 1 3 846 -402 98 206zm-543 -1066l-1067 708 -352 -530 164 -108 217 326 263 -174 -199 -301 164 -109 199 301 312 -207 -224 -337 164 -109 359 540zm-509 -728l-996 806 -153 -190 996 -805 153 189zm-1025 -73l-76 -76c-68,-69 -163,-14 -221,44 -87,86 -87,152 -32,207l76 76 253 -251zm-868 -871c-198,262 -270,385 -161,468 109,83 209,-19 407,-281 199,-261 270,-385 161,-468 -109,-83 -209,20 -407,281zm-7112 8188c0,128 18,217 55,268 37,51 99,77 187,77 104,0 178,-25 224,-76 45,-50 68,-133 68,-248l0 -748c0,-65 -8,-104 -23,-119 -15,-14 -49,-21 -103,-21l-78 0 0 -232 713 0 0 232 -70 0c-54,0 -89,7 -104,22 -15,15 -23,52 -23,111l0 796c0,176 -59,310 -177,402 -119,92 -293,138 -522,138 -208,0 -369,-45 -483,-136 -114,-91 -171,-219 -171,-384l0 -809c0,-62 -8,-101 -23,-117 -16,-15 -51,-23 -105,-23l-78 0 0 -232 927 0 0 232 -85 0c-56,0 -91,8 -106,23 -16,16 -23,55 -23,117l0 727zm2970 -1099l0 615 -243 0c-15,-80 -32,-143 -50,-188 -17,-45 -39,-81 -64,-108 -29,-32 -64,-54 -106,-67 -42,-13 -109,-20 -203,-20l-46 0 -199 0 0 453 60 0c70,0 119,-17 148,-53 28,-36 42,-100 42,-192l0 -14 191 0 0 753 -191 0c-3,-115 -17,-190 -42,-225 -26,-35 -74,-52 -145,-52l-63 0 0 514 274 0c106,0 178,-7 218,-20 40,-14 71,-37 92,-70 24,-39 43,-87 57,-143 14,-56 23,-127 27,-213l252 0 0 681 -1623 0 0 -235 78 0c50,0 84,-6 100,-19 16,-13 24,-49 24,-110l0 -12 0 -901c0,-65 -8,-105 -22,-120 -15,-15 -50,-22 -105,-22l-75 0 0 -232 1614 0zm1129 680l134 0c94,0 161,-16 199,-48 38,-32 57,-86 57,-162 0,-83 -17,-142 -53,-175 -35,-34 -97,-51 -186,-51l-151 0 0 436zm2106 -307c0,-64 -8,-104 -23,-119 -14,-15 -49,-22 -103,-22l-86 0 0 -232 917 0 0 232 -71 0c-51,0 -84,6 -99,19 -16,13 -24,50 -24,110l0 12 0 725c0,121 -10,215 -30,280 -20,65 -54,120 -101,165 -53,53 -120,93 -200,119 -81,26 -175,39 -283,39 -170,0 -308,-44 -414,-131 -106,-87 -159,-199 -159,-336 0,-104 29,-188 85,-253 57,-64 131,-96 222,-96 68,0 121,20 161,61 39,41 59,97 59,166 0,66 -18,119 -54,159 -35,40 -82,60 -140,60 -10,0 -20,0 -30,-2 -11,-1 -22,-2 -34,-5 19,40 43,70 74,90 30,20 67,30 108,30 84,0 143,-25 176,-74 32,-49 49,-148 49,-296l0 -701z"/>
   </g>
   <g>
    <path class="fil0" d="M10290 6700c-82,0 -5531,0 -5531,0 -138,-5 12,123 169,255 81,71 61,46 138,123 264,296 84,882 1072,1186 0,0 24,163 106,163 82,0 2420,1 2520,0 99,-2 123,-163 123,-163 989,-304 808,-890 1072,-1186 77,-77 58,-52 139,-123 157,-132 274,-256 192,-255l0 0zm-3186 4299l82 2216c46,8 141,23 257,28l-28 -2244c-116,0 -227,0 -311,0l0 0zm-1371 -5248c-71,81 -233,-103 -436,322 -618,71 -689,460 -596,505 35,14 31,5 31,5 28,-246 493,-406 625,-437 166,-441 343,-272 407,-359 41,-211 119,-236 119,-236 0,0 -90,-7 -150,200zm1504 9693c0,0 59,41 261,41 203,0 269,-41 269,-41l-99 913c0,0 -23,145 -165,145 -141,0 -162,-144 -162,-144l-104 -914zm1037 -4441c-89,-1 -114,-2 -203,-2l-162 2193c67,-16 66,-16 128,-37l237 -2154zm-687 -4l-28 2231 -1 13c113,-3 212,-17 259,-25l80 -2219c-83,0 -194,0 -310,0zm-652 0c-89,0 -114,0 -204,0l241 2154c68,23 56,19 133,40l-170 -2194zm1782 -2397c0,40 -20,72 -45,72l-2339 0c-25,0 -45,-32 -45,-72l0 0c0,-39 20,-71 45,-71l2339 0c25,0 45,32 45,71l0 0zm-1341 -2745c-99,-1 -91,87 -86,154 -155,0 -1168,0 -1251,0 -71,0 -62,101 -62,101l3724 0c-58,-224 -245,-255 -245,-255l-2080 0zm-27 -334c-55,0 -102,29 -90,147 -350,0 -704,0 -805,0 -55,1 -51,89 -51,89l2940 -1c-45,-212 -129,-235 -129,-235l-1865 0zm-54 2563c-334,68 -625,189 -781,189 -119,1 -201,-162 -201,-162 -866,-268 -885,-699 -975,-959 -90,-260 -292,-356 -55,-356l2435 7c0,0 525,86 683,473 174,520 -504,686 -1106,808zm3042 -1489c-5,-241 -430,-332 -545,-365 0,0 -2308,0 -2400,0 -125,0 63,365 154,365 93,0 2791,0 2791,0z"/>
   </g>
   <path class="fil0" d="M10696 2843c4,56 12,860 -1185,790 -47,-3 -104,-21 -148,-16 2202,-1453 -157,-1923 -369,-2581 -22,283 95,372 205,629 105,247 83,361 83,361 0,0 -1176,-799 -985,-1547 11,-44 -440,309 -344,937 76,501 112,1307 -1216,1479 -727,95 -2696,515 -2577,1533 118,1018 2157,894 2157,894 560,0 319,-463 -13,-620 -573,-257 -574,-882 866,-1154 -717,439 -611,678 -71,960 612,313 61,810 326,811 206,9 568,10 760,10 331,-5 -1243,-736 389,-1667 -772,1089 229,1582 385,1589 155,6 -523,-632 815,-919 1381,-296 922,-1489 922,-1489zm-5944 70c0,0 33,-834 973,-1215 1007,-407 173,-1575 -471,-1451 317,220 720,756 156,1102 -1155,707 -658,1564 -658,1564zm615 -518c-368,378 -338,685 -338,685 0,0 322,-289 626,-395 295,-103 752,-131 1155,-248 452,-130 897,-622 624,-1285 -224,-543 -562,-737 -470,-1154 -222,170 -330,392 -351,681 -27,389 246,654 -69,990 -355,379 -738,329 -1177,726z"/>
  </g>
 </g>
</svg>
